<?xml version="1.0" encoding="iso-8859-1"?>
<!-- Generator: Adobe Illustrator 19.0.0, SVG Export Plug-In . SVG Version: 6.00 Build 0)  -->
<svg version="1.1" id="Capa_1" xmlns="http://www.w3.org/2000/svg" xmlns:xlink="http://www.w3.org/1999/xlink" x="0px" y="0px"
	 viewBox="0 0 490 490" style="enable-background:new 0 0 490 490;" xml:space="preserve">
<g>
	<g>
		<g>
			<path d="M343.147,489.905h-67.205l-2.123-4.156c-0.404-0.762-38.117-76.473,35.576-128.118
				c66.712-46.772,86.443-73.289,86.622-73.543l1.569-2.153l2.586-0.732c3.856-1.076,23.617-5.919,32.332,4.798
				c5.217,6.383,4.753,15.665-1.375,27.594c-5.262,10.254-11.555,19.432-17.773,27.265c10.733-7.474,21.002-18.162,25.785-33.094
				c4.499-14.006,5.904-25.8,7.16-36.204c2.407-20.194,4.499-37.653,31.495-44.216l7.713-1.883l1.599,7.773
				c0.703,3.468,16.816,85.367-35.337,136.145c-16.697,16.248-34.5,29.387-50.21,40.972c-31.495,23.229-56.368,41.585-58.027,72.317
				L343.147,489.905z M285.553,474.598h43.438c5.112-33.498,32.302-53.558,63.483-76.563c16.069-11.839,32.676-24.096,48.625-39.627
				c36.846-35.875,34.694-91.974,32.272-113.394c-9.028,4.589-9.985,12.466-11.883,28.371c-1.256,10.538-2.825,23.647-7.758,39.044
				c-15.008,46.772-69.761,58.491-72.078,58.969l-31.928,6.532l25.68-20.075c0.269-0.194,26.562-20.957,42.123-51.256
				c4.29-8.371,3.139-10.912,3.124-10.927c-1.106-1.345-7.594-1.644-14.051-0.284c-6.278,7.653-29.671,33.588-88.416,74.769
				C263.834,408.245,279.44,459.651,285.553,474.598z"/>
		</g>
		<g>
			<path d="M214.058,489.905h-67.205l-0.389-7.235c-1.659-30.733-26.532-49.089-58.027-72.317
				c-15.71-11.585-33.513-24.724-50.21-40.972C-13.926,318.603,2.188,236.704,2.89,233.236l1.599-7.773l7.713,1.883
				c26.996,6.562,29.088,24.021,31.495,44.216c1.256,10.404,2.661,22.197,7.16,36.204c4.783,14.933,15.052,25.62,25.785,33.094
				c-6.218-7.833-12.511-17.011-17.773-27.265c-6.128-11.928-6.592-21.211-1.375-27.594c8.7-10.717,28.476-5.874,32.332-4.798
				l2.571,0.703l1.585,2.182c0.179,0.254,19.91,26.771,86.622,73.543c73.693,51.645,35.979,127.355,35.576,128.118L214.058,489.905z
				 M161.008,474.598h43.408c6.069-15.008,21.51-66.518-32.601-104.44c-58.745-41.181-82.138-67.116-88.416-74.769
				c-6.472-1.36-12.945-1.061-14.051,0.284c-0.015,0.015-1.166,2.556,3.124,10.927c15.635,30.419,41.854,51.047,42.123,51.256
				l25.815,20.105l-32.063-6.562c-2.317-0.478-57.071-12.197-72.078-58.969c-4.933-15.396-6.502-28.505-7.758-39.044
				c-1.898-15.904-2.855-23.782-11.884-28.371c-2.421,21.42-4.574,77.519,32.272,113.394c15.949,15.531,32.556,27.788,48.625,39.627
				C128.706,421.04,155.896,441.1,161.008,474.598z"/>
		</g>
	</g>
	<g>
		<g>
			<g>
				<path d="M219.015,72.159c0,23.969-4.649,42.077-13.946,54.324c-9.297,12.247-22.939,18.371-40.926,18.371
					c-17.015,0-30.231-6.255-39.65-18.765c-9.419-12.51-14.128-30.487-14.128-53.93c0-23.864,4.527-41.84,13.581-53.93
					C133,6.14,146.399,0.095,164.143,0.095c17.622,0,31.173,6.255,40.653,18.765C214.275,31.37,219.015,49.137,219.015,72.159z
					 M135.522,72.159c0,17.871,2.248,31.275,6.745,40.211c4.497,8.936,11.789,13.404,21.876,13.404
					c19.931,0,29.897-17.871,29.897-53.614c0-35.533-9.966-53.299-29.897-53.299c-10.087,0-17.379,4.415-21.876,13.246
					C137.77,40.937,135.522,54.288,135.522,72.159z M332.602,3.407L184.743,233.948h-26.798L305.804,3.407H332.602z
					 M379.635,164.565c0,23.864-4.679,41.919-13.976,54.166c-9.297,12.247-22.909,18.371-40.896,18.371
					c-17.258,0-30.565-6.255-39.863-18.765c-9.297-12.51-13.915-30.434-13.915-53.772c0-23.864,4.497-41.84,13.551-53.93
					c9.054-12.09,22.483-18.134,40.227-18.134c17.258,0,30.687,6.176,40.349,18.528
					C374.774,123.382,379.635,141.227,379.635,164.565z M295.96,164.565c0,17.977,2.248,31.406,6.745,40.29
					c4.497,8.883,11.849,13.325,22.058,13.325s17.744-4.389,22.605-13.167c4.861-8.778,7.292-22.26,7.292-40.447
					c0-17.977-2.431-31.301-7.292-39.974c-4.861-8.673-12.396-13.009-22.605-13.009s-17.561,4.337-22.058,13.009
					C298.208,133.264,295.96,146.588,295.96,164.565z"/>
			</g>
		</g>
	</g>
</g>
<g>
</g>
<g>
</g>
<g>
</g>
<g>
</g>
<g>
</g>
<g>
</g>
<g>
</g>
<g>
</g>
<g>
</g>
<g>
</g>
<g>
</g>
<g>
</g>
<g>
</g>
<g>
</g>
<g>
</g>
</svg>
